# vtk DataFile Version 3.0
vtk output
ASCII
DATASET UNSTRUCTURED_GRID
FIELD FieldData 2
TIME 1 1 double
0
CYCLE 1 1 int
0
POINTS 20 float
0 0 0
10 0 0
10 10 0
0 10 0
0 0 10
10 0 10
10 10 10
0 10 10
5 0 0
10 5 0
5 10 0
0 5 0
5 0 10
10 5 10
5 10 10
0 5 10
0 0 5
10 0 5
10 10 5
0 10 5

CELLS 1 9
8 0  1  2  3  4  5  6  7

CELL_TYPES 1
12

POINT_DATA 20
SCALARS NODE_ID int 1
LOOKUP_TABLE default
1
2
3
4
5
6
7
8
9
10
11
12
13
14
15
16
17
18
19
20

CELL_DATA 1
SCALARS ELEMENT_ID int 1
LOOKUP_TABLE default
1

SCALARS PART_ID int 1
LOOKUP_TABLE default
1

SCALARS EROSION_STATUS int 1
LOOKUP_TABLE default
1

