# vtk DataFile Version 3.0
vtk output
ASCII
DATASET UNSTRUCTURED_GRID
FIELD FieldData 2
TIME 1 1 double
0
CYCLE 1 1 int
0
POINTS 12 float
0 0 0
1 0 0
0 1 0
0 0 1
0 0 0
10 0 0
10 10 0
0 10 0
0 0 10
10 0 10
10 10 10
0 10 10

CELLS 3 9
2 0 1
2 0 2
2 0 3

CELL_TYPES 3
3
3
3

POINT_DATA 12
SCALARS NODE_ID int 1
LOOKUP_TABLE default
1
2
3
4
9001
9002
9003
9004
9005
9006
9007
9008

CELL_DATA 3
SCALARS ELEMENT_ID int 1
LOOKUP_TABLE default
0
0
0

SCALARS PART_ID int 1
LOOKUP_TABLE default
100
100
100

SCALARS EROSION_STATUS int 1
LOOKUP_TABLE default
1
1
1

